<?xml version="1.0" encoding="utf-8"?>
<!-- Generator: Adobe Illustrator 24.3.0, SVG Export Plug-In . SVG Version: 6.00 Build 0)  -->
<svg version="1.1" id="katman_1" xmlns="http://www.w3.org/2000/svg" xmlns:xlink="http://www.w3.org/1999/xlink" x="0px" y="0px"
	 viewBox="0 0 300 300" style="enable-background:new 0 0 300 300;" xml:space="preserve">
<style type="text/css">
	.st0{clip-path:url(#SVGID_1_);fill:url(#SVGID_2_);}
</style>
<g>
	<defs>
		<path id="SVGID_4_" d="M43.58,116.01c-0.04,8.16,6.44,14.79,14.78,15.25c29.22,1.54,45.75,8.33,59.11,14.55l2.55-4.22
			c4.44-7.3,0.92-16.35-7.62-19.64c-17.91-7.12-38.4-11.84-68.78-12.3L43.58,116.01z M26.06,72.74c0.25,8.37,6.95,15.32,15.29,15.8
			c30.78,1.8,58.7,8.59,81.46,19.44l2.32-4.08c4.15-7.22,0.27-16.35-8.4-19.74c-26.53-10.75-57-16.95-90.86-17.9L26.06,72.74z
			 M141.83,250.55c-3.04-8.88,0.83-25.75,19.77-50.78c7.22,22.69,13.49,44.56,7.41,52.42c-3.42,4.42-8.21,6.16-12.84,6.16
			C149.56,258.35,143.29,254.82,141.83,250.55 M1.18,23.52l0.36,5.77c0.55,8.77,7.9,15.52,16.69,15.4
			c49.14-0.71,83.67,10.29,104.63,20.19c15.24,7.19,25.5,14.77,31.22,19.61c-13.17,27.38-8.85,59.94-0.68,90.66
			c-34.84,41.19-37.7,66.88-32.36,82.06l-13.22,0.02c-2.91,0.17-15.1-0.31-16.25-5.89c-2.08-10.14,5.27-23.77,11.75-35.79
			c8.19-15.2,16.67-30.92,9.12-44.87c-5.86-10.83-18.98-16.54-42.55-18.53l-0.1,1.21c-0.88,10.47,5.48,20.46,15.57,23.42
			c6.36,1.87,8.44,7.38,6.94,11.58c-1.86,5.2-5.46,11.81-8.18,16.85c-8.24,15.29-17.59,32.62-13.91,50.52
			c3.8,18.55,22.93,23.38,35.79,23.38c1.02,0,102.9-0.09,102.9-0.09v-6.47c0-8.47-6.87-15.34-15.34-15.34h-2.8
			c6.55-18.28-12.84-76.43-12.44-78.27c3.17-3.4,7.98-7.84,12.15-11.81c1.01-0.96,4.21-4.1,4.84-4.78
			c8.53-9.06,14.41-20.19,17.62-33.56l0.1,0.02c2.48-10.33,1.72-22,2.6-35.11c2.22-33.23,42.56-11.13,41.33-10.48
			c-9.33,4.94-25.25,16.24-16.42,42.51c0.98,2.92,2.34,5.71,3.54,8.46c4.56,10.5,8.56,19.73,6.31,30.45
			c-0.17,0.81-1.71,5.72-2.94,8.14c-2.91,5.74-7.52,12.12-14.84,19.33c-20.07,19.74-19.83,39.3-16.1,52.24
			c4.77,16.55,11.55,27.93,11.84,28.4l3.18,5.29h28.33v-6.25c0-8.59-6.97-15.56-15.56-15.56c-1.97-4.11-4.65-10.38-6.82-17.93
			c-3.08-10.68,0.33-20.71,10.44-30.65c12.34-12.14,19.12-23.26,22.37-33.41h0.01c7.31-20.17-6.3-48.75-6.3-48.75
			c-9.54-21.78,7.32-27.69,10.1-28.34c16.44-3.85,18.92,6.97,18.92,6.97c19.4-20.98-14.35-29.52-14.35-29.52
			c-5.95-18.08-17.92-19.31-43.07-23.38c-25.15-4.07-38.02-16.67-38.02-16.67s-7.7,15.68,6.22,27.98l-0.01,0.07
			c-5.74,6.07-10.82,16.38-10.03,32.19c1.24,24.78-3.88,42.44-15.65,53.98c-2.42,2.37-4.73,4.69-6.97,6.98
			c-5.31-24.88-6.1-48.88,5.8-67.52l4.4-6.9l-5.39-6.16c-1.99-2.27-47.18-52.34-152.82-52.34C16.06,22.83,8.76,23.05,1.18,23.52"/>
	</defs>
	<clipPath id="SVGID_1_">
		<use xlink:href="#SVGID_4_"  style="overflow:visible;"/>
	</clipPath>
	
		<linearGradient id="SVGID_2_" gradientUnits="userSpaceOnUse" x1="-460.1844" y1="545.4944" x2="-458.4084" y2="545.4944" gradientTransform="matrix(102.5339 -122.1952 -122.1952 -102.5339 113907.0469 -41.1558)">
		<stop  offset="0" style="stop-color:#5F00FF"/>
		<stop  offset="0.0627" style="stop-color:#6603FA"/>
		<stop  offset="0.1519" style="stop-color:#7809EB"/>
		<stop  offset="0.2569" style="stop-color:#9715D3"/>
		<stop  offset="0.3739" style="stop-color:#C225B2"/>
		<stop  offset="0.4995" style="stop-color:#F83988"/>
		<stop  offset="0.5155" style="stop-color:#FF3C82"/>
		<stop  offset="1" style="stop-color:#FF7F19"/>
	</linearGradient>
	<polygon class="st0" points="-125.01,173.21 129.76,-130.41 438.58,128.71 183.8,432.34 	"/>
</g>
</svg>
